Coordinates
version=1
nRows=13
nColumns=36
inDegrees=yes

Units are S.I. units (second, meters, Newtons, ...)
If the header above contains a line with 'inDegrees', this indicates whether rotational values are in degrees (yes) or radians (no).

endheader
time	pelvis_tilt	pelvis_list	pelvis_rotation	pelvis_tx	pelvis_ty	pelvis_tz	hip_flexion_r	hip_adduction_r	hip_rotation_r	knee_angle_r	knee_angle_r_beta	ankle_angle_r	subtalar_angle_r	mtp_angle_r	hip_flexion_l	hip_adduction_l	hip_rotation_l	knee_angle_l	knee_angle_l_beta	ankle_angle_l	subtalar_angle_l	mtp_angle_l	lumbar_extension	lumbar_bending	lumbar_rotation	arm_flex_r	arm_add_r	arm_rot_r	elbow_flex_r	pro_sup_r	arm_flex_l	arm_add_l	arm_rot_l	elbow_flex_l	pro_sup_l
      1.31666670	     -4.82301664	      2.28093890	      4.25174636	     -0.06624708	      1.20704159	     -0.04011370	      0.14162524	      1.16915811	     -5.16735076	      2.77827895	      0.04849012	      4.27299753	     -0.10348576	     -7.49999987	     -0.81120187	     -2.28818053	     -2.96354025	      2.03713327	      0.03555468	      4.59681274	      7.08636544	     -7.49999987	     -4.42980981	     -0.82506498	      2.12647368	      3.41366227	    -10.06104269	     24.25920949	     25.63238120	     74.97472897	      5.71308315	     -8.97037868	     38.61164689	     22.15060023	     63.38076658
      1.33333330	     -4.73134532	      2.40000995	      4.46449198	     -0.06368092	      1.20080032	     -0.03973730	      0.08760567	      1.12634648	     -5.01417619	      3.09779739	      0.05406676	      4.88216704	     -0.37472501	     -7.49999987	     -0.72485315	     -2.27795632	     -2.77631773	      2.55657331	      0.04462062	      4.74539254	      6.97866797	     -7.49999987	     -4.59423007	     -0.84802431	      2.11362104	      3.63234155	    -10.06977692	     24.22007087	     25.76279486	     74.97492165	      5.84852218	     -9.14777204	     38.56725480	     22.20301293	     63.37398289
      1.35000000	     -4.80589364	      2.47337438	      4.66765875	     -0.06410016	      1.19945116	     -0.03957043	      0.27153740	      1.09360936	     -4.97220163	      3.50836574	      0.06123253	      5.49960865	     -0.61785861	     -7.49999987	     -0.39513745	     -2.28460114	     -2.30807905	      3.10702640	      0.05422784	      4.90717066	      6.49708687	     -7.49999987	     -4.57683233	     -0.85328726	      2.00428307	      3.80591884	    -10.13756463	     24.40737159	     26.29208546	     71.10953412	      5.64212208	     -9.30535859	     36.91209604	     22.75597517	     62.76845990
      1.36666670	     -4.80194372	      2.55856985	      4.90325370	     -0.06352386	      1.20197803	     -0.03960945	      0.36387984	      1.04969047	     -4.77366712	      3.86684654	      0.06748920	      5.97222323	     -1.10731219	     -7.49999987	     -0.09002465	     -2.27175383	     -1.84933417	      3.73308920	      0.06515470	      4.94243782	      5.85861713	     -7.49999987	     -4.71475060	     -0.81089161	      1.76983204	      4.22658463	    -10.26812924	     24.63794197	     26.67867687	     70.51034557	      5.54675216	     -9.50401185	     36.29954604	     22.99957636	     62.91371108
      1.38333330	     -4.73150678	      2.63468767	      5.05591750	     -0.06406510	      1.19784382	     -0.03928597	      0.42946670	      1.02561085	     -4.48438953	      4.24802005	      0.07414194	      6.39748756	     -1.83524066	     -7.49999987	      0.20369652	     -2.26043364	     -1.55360051	      4.44813700	      0.07763464	      5.05546445	      5.34908240	     -7.49999987	     -5.06068986	     -0.80964777	      1.80741559	      4.20460420	    -10.48276215	     24.04470393	     28.00172091	     69.73145705	      5.36415508	     -9.89682116	     35.37035168	     24.01592978	     62.63356302
      1.40000000	     -4.66591715	      2.74864837	      5.26366998	     -0.06205641	      1.19796728	     -0.04035247	      0.48765359	      0.89213899	     -4.54300628	      4.66023208	      0.08133639	      7.13309060	     -2.26508026	     -7.49999987	      0.62275044	     -2.17278245	     -0.93841592	      5.37954194	      0.09389072	      5.48490183	      4.51930175	     -7.49999987	     -5.34932882	     -0.82458462	      1.79901140	      4.14957379	    -10.69472205	     23.46790155	     29.04345159	     69.32827860	      5.04044775	    -10.14236733	     34.39882007	     24.68905000	     62.45371141
      1.41666670	     -4.95909238	      2.84522055	      5.42994404	     -0.06399299	      1.19687416	     -0.03842098	      1.09428891	      0.74594726	     -4.53442810	      5.21236477	      0.09097293	      7.75218988	     -2.75981051	     -7.49999987	      1.61226851	     -2.08323221	     -0.55875788	      6.64463976	      0.11597084	      5.77498464	      3.61700257	     -7.49999987	     -5.15365772	     -0.87685452	      1.81358852	      4.39224074	    -10.67332011	     23.15939861	     29.04204330	     70.68397995	      4.81762720	    -10.20756268	     33.32157875	     24.35632512	     62.89316791
      1.43333330	     -5.02058681	      3.02588226	      5.59377088	     -0.06565367	      1.19810517	     -0.03839114	      1.39181953	      0.53149763	     -4.42651090	      5.65201103	      0.09864620	      8.51351563	     -3.22170816	     -7.49999987	      2.53206346	     -1.93196481	     -0.23289210	      8.09406041	      0.14126800	      6.01343271	      2.70920344	     -7.49999987	     -5.56052418	     -0.97832396	      1.70265552	      4.31210352	    -10.65274436	     20.87407780	     30.09674061	     77.73155307	      4.31236477	    -10.58417873	     31.41941736	     25.36799501	     65.19587504
      1.45000000	     -5.17598002	      3.21229204	      5.71171569	     -0.06960456	      1.19789312	     -0.03876743	      1.89740962	      0.29589233	     -4.16268148	      6.14853232	      0.10731213	      8.96186007	     -3.73464899	     -7.49999987	      3.73101447	     -1.73966859	      0.04878505	      9.81217449	      0.17125475	      6.37230257	      1.78566212	     -7.49999987	     -6.06744682	     -1.15447913	      1.83158860	      4.23098950	    -10.78623482	     19.96662852	     31.40548612	     76.16384347	      4.01575967	    -10.95818805	     30.15505307	     26.30876057	     64.64703237
      1.46666670	     -5.44717458	      3.35213064	      5.83524976	     -0.06877877	      1.19610321	     -0.03904362	      2.53704395	      0.08718917	     -3.86631625	      6.69902114	      0.11691998	      9.52626287	     -4.28980135	     -7.49999987	      5.31240754	     -1.56962512	      0.29068715	     11.83598387	      0.20657689	      6.86596708	      0.91935146	     -7.49999987	     -6.48549022	     -1.29323528	      1.77063164	      4.22580712	    -10.86905821	     19.19581276	     32.41786994	     75.09509376	      3.66311544	    -11.24066962	     29.18340269	     26.55251952	     64.27956454
      1.48333330	     -5.74459759	      3.52375035	      6.01258909	     -0.07164696	      1.19522303	     -0.03800762	      3.21879761	     -0.18109720	     -3.97340076	      7.37199516	      0.12866559	      9.93122781	     -4.50410686	     -7.49999987	      7.09051101	     -1.34291084	      0.61346205	     14.07548712	      0.24566359	      6.97289171	     -0.11237215	     -7.49999987	     -7.10792278	     -1.48333936	      1.54310728	      4.30966040	    -10.96060564	     18.59215071	     33.49575663	     74.54460067	      3.31763309	    -11.63895681	     28.36322526	     27.02280003	     64.10085600
      1.50000000	     -6.30013670	      3.63613677	      6.06658782	     -0.07399913	      1.19107062	     -0.03810366	      4.25733141	     -0.41539082	     -3.85128653	      8.15660421	      0.14235960	     10.70463662	     -4.49729930	     -7.49999987	      9.21119694	     -1.17961112	      0.60961715	     16.42983133	      0.28675465	      7.49443863	     -0.68086740	     -7.49999987	     -7.50624329	     -1.68744321	      1.44814034	      4.17701199	    -11.23201887	     18.16959462	     34.97711868	     73.85763842	      2.70654114	    -12.24325229	     27.83701038	     28.21540325	     63.87664838
      1.51666670	     -6.71515147	      3.65553325	      6.15641507	     -0.07015516	      1.19101828	     -0.04049113	      4.98712339	     -0.59479614	     -3.66744122	      8.84661881	      0.15440263	     11.11389729	     -5.19827709	     -7.49999987	     11.03285941	     -1.06823492	      0.92486310	     18.68652769	      0.32614143	      8.26542390	     -1.49849388	     -7.49999987	     -8.15940379	     -1.66780847	      1.07044385	      3.77083046	    -11.04127785	     15.12023154	     36.33047098	     77.31662056	      1.87096238	    -11.97086049	     24.23541794	     27.84699693	     65.24392225
